<svg enable-background="new 0 0 20 20" height="20" viewBox="0 0 20 20" width="20" xmlns="http://www.w3.org/2000/svg"><path d="m0 0h20v20h-20z" fill="none"/><path d="m9.25 16h1.5v-1h-1.5zm.75-8c-1.38 0-2.5 1.12-2.5 2.5 0 1.5 1.75 2.5 1.75 3.5h1.5c0-1 1.75-2 1.75-3.5 0-1.38-1.12-2.5-2.5-2.5zm-3.53 5.53-.71.71c-1.09-1.08-1.76-2.58-1.76-4.24 0-3.31 2.69-6 6-6v-2l2.5 2.5-2.5 2.5v-2c-2.76 0-5 2.24-5 5 0 1.38.56 2.63 1.47 3.53zm7.77.71-.71-.71c.91-.9 1.47-2.15 1.47-3.53s-.56-2.63-1.47-3.53l.71-.71c1.09 1.08 1.76 2.58 1.76 4.24s-.67 3.16-1.76 4.24z"/></svg>